<?xml version="1.0" standalone="no"?>
<!DOCTYPE svg PUBLIC "-//W3C//DTD SVG 20010904//EN"
 "http://www.w3.org/TR/2001/REC-SVG-20010904/DTD/svg10.dtd">
<svg version="1.0" xmlns="http://www.w3.org/2000/svg"
 width="659.000000pt" height="462.000000pt" viewBox="0 0 659.000000 462.000000"
 preserveAspectRatio="xMidYMid meet">

<g transform="translate(0.000000,462.000000) scale(0.100000,-0.100000)"
fill="#000000" stroke="none">
<path d="M947 4586 c-144 -51 -282 -170 -340 -293 -28 -60 -32 -80 -35 -169
-8 -216 63 -438 224 -706 38 -62 129 -207 204 -323 75 -115 160 -253 189 -305
l54 -94 -24 -16 c-82 -53 -195 -145 -273 -220 l-91 -88 -61 62 c-40 42 -83 74
-130 97 -65 32 -74 34 -174 34 -99 0 -109 -2 -173 -33 -130 -64 -229 -193
-277 -362 -31 -107 -38 -307 -16 -420 39 -199 153 -349 331 -436 367 -178 849
-62 1176 284 127 134 199 277 214 422 13 131 -21 349 -86 545 -78 236 -207
471 -508 920 -178 266 -252 389 -299 504 -34 80 -36 93 -37 191 0 99 2 110 32
170 35 72 103 149 155 176 73 40 202 14 281 -56 l37 -32 -41 -47 c-51 -57 -75
-103 -95 -184 -31 -121 -2 -258 72 -335 42 -44 44 -45 94 -40 82 8 144 80 169
196 27 127 3 275 -59 360 -16 23 -30 44 -30 46 0 2 24 12 53 22 77 27 209 25
262 -3 76 -40 137 -127 151 -212 8 -52 26 -76 49 -67 14 5 17 15 13 50 -12
106 -98 225 -196 273 -50 24 -67 27 -147 26 -61 -1 -112 -8 -157 -22 l-67 -22
-66 45 c-123 85 -252 106 -378 62z m442 -255 c33 -78 44 -147 39 -250 -6 -116
-32 -187 -73 -197 -35 -9 -62 17 -80 79 -20 66 -19 199 1 268 14 50 71 149 85
149 4 0 16 -22 28 -49z m-86 -1782 c71 -186 108 -418 87 -551 -29 -191 -160
-375 -361 -510 -292 -196 -589 -199 -781 -8 -68 69 -119 167 -144 278 -20 91
-14 294 11 387 74 270 270 423 459 359 58 -20 153 -106 186 -167 l23 -43 -65
-81 c-76 -94 -136 -191 -175 -283 -22 -54 -27 -81 -27 -155 -1 -116 24 -167
97 -204 45 -22 52 -23 103 -12 148 33 247 204 248 426 0 108 -13 177 -51 270
l-25 59 88 86 c96 93 273 232 289 227 5 -2 22 -37 38 -78z m-463 -396 c30
-100 37 -163 28 -246 -9 -86 -52 -181 -107 -236 -34 -34 -48 -41 -80 -41 -53
0 -76 30 -85 109 -10 83 14 186 65 279 43 80 135 212 148 212 5 0 18 -34 31
-77z"/>
<path d="M4965 3807 c-18 -14 -19 -19 -7 -87 20 -114 52 -166 111 -175 20 -3
67 -13 104 -23 78 -19 100 -12 105 34 6 47 -16 99 -62 151 -76 85 -203 135
-251 100z"/>
<path d="M4039 3503 c-88 -75 -126 -313 -74 -467 11 -31 13 -51 7 -55 -6 -3
-22 -53 -37 -111 -101 -405 -264 -882 -348 -1020 -42 -70 -62 -82 -87 -53 -43
53 -36 236 31 753 46 349 56 579 31 677 -19 72 -63 138 -109 161 -112 57 -199
27 -285 -96 -42 -61 -96 -158 -122 -221 l-23 -53 -7 43 c-13 88 -38 142 -85
189 -53 52 -100 70 -189 70 -93 0 -112 -33 -72 -121 17 -38 20 -66 20 -216 l0
-172 -37 -37 c-50 -47 -103 -74 -165 -81 l-51 -6 7 29 c40 156 61 366 45 465
-21 136 -105 249 -211 285 -77 25 -188 16 -257 -21 -105 -57 -181 -177 -181
-283 0 -26 7 -74 14 -106 l14 -60 -32 -38 c-201 -235 -121 -570 153 -634 175
-42 298 27 391 219 38 79 44 87 70 87 46 0 154 38 197 69 l41 30 6 -47 c3 -26
8 -78 11 -117 13 -148 58 -258 110 -271 41 -10 111 5 138 30 21 19 26 36 31
92 29 344 149 758 256 887 37 44 66 48 80 11 15 -38 12 -236 -7 -459 -11 -131
-17 -310 -17 -520 -1 -275 2 -331 17 -397 37 -158 100 -241 192 -252 35 -5 43
-1 75 33 102 107 250 506 384 1032 48 186 55 206 70 197 26 -14 101 -1 181 33
71 29 95 35 95 22 0 -5 -12 -145 -25 -313 -46 -553 -43 -752 15 -917 39 -113
117 -186 211 -199 42 -6 49 -3 83 26 76 67 173 339 261 730 35 156 33 153 58
80 27 -81 67 -150 114 -196 140 -140 332 -45 498 248 l22 38 13 -42 c37 -125
132 -238 235 -278 47 -19 80 -24 150 -25 115 0 173 25 274 120 125 118 242
324 330 577 35 102 38 118 25 129 -22 18 -36 -1 -69 -96 -77 -217 -182 -415
-273 -516 -115 -127 -223 -148 -315 -61 -34 32 -88 135 -110 210 -16 51 -16
52 6 66 12 7 58 35 102 61 91 56 202 161 231 220 42 87 16 218 -56 279 -40 33
-68 40 -142 33 -217 -20 -417 -270 -418 -524 0 -44 -8 -65 -51 -140 -77 -136
-136 -193 -199 -193 -40 0 -66 22 -89 75 -22 48 -25 216 -7 380 35 323 33 364
-27 432 -38 44 -82 63 -141 63 -56 0 -86 -32 -86 -93 0 -22 -11 -135 -25 -251
-35 -288 -142 -758 -236 -1041 -45 -134 -60 -161 -85 -151 -15 6 -16 18 -11
104 4 53 18 187 31 297 39 317 49 469 43 610 -9 190 -44 294 -116 342 -61 41
-179 25 -314 -43 l-50 -26 7 34 c26 142 33 296 15 377 -20 96 -85 128 -150 74z
m90 -88 c27 -54 9 -356 -23 -400 -18 -25 -59 -4 -80 40 -36 76 -20 271 31 368
19 37 52 33 72 -8z m-1858 -25 c53 -15 113 -72 139 -132 42 -97 38 -262 -12
-468 -11 -47 -24 -89 -29 -94 -11 -13 -112 9 -173 38 -62 28 -146 101 -146
126 0 23 59 109 122 178 26 30 48 62 48 72 0 62 -128 48 -242 -26 -15 -10 -30
-15 -34 -11 -4 4 -7 40 -8 79 0 56 5 83 22 114 55 106 188 159 313 124z m3788
-367 c12 -10 24 -35 28 -56 9 -58 -19 -118 -86 -179 -56 -51 -189 -138 -213
-138 -15 0 -4 148 17 216 8 28 29 70 46 93 51 71 159 104 208 64z m-3999 -289
c34 -29 146 -76 213 -90 39 -9 72 -16 73 -17 5 -5 -66 -148 -87 -177 -44 -60
-101 -68 -151 -23 -47 42 -88 170 -88 273 0 63 3 66 40 34z"/>
<path d="M5566 1907 c-16 -12 -18 -22 -12 -68 9 -67 42 -138 70 -149 42 -16
177 -42 191 -36 22 8 19 72 -6 123 -43 88 -192 168 -243 130z"/>
<path d="M5561 1433 c-19 -16 -24 -42 -46 -238 -29 -255 -31 -359 -10 -435 30
-109 30 -109 -24 -270 -89 -261 -164 -400 -217 -400 -22 0 -63 30 -64 48 -1 4
-5 27 -10 52 -12 65 4 231 50 503 66 396 72 531 26 599 -44 66 -149 46 -239
-44 -75 -74 -132 -193 -189 -392 -23 -80 -43 -145 -44 -143 -2 1 -8 59 -13
127 -13 147 -23 189 -57 230 -34 40 -89 42 -133 5 -36 -31 -81 -117 -107 -208
-10 -37 -22 -67 -25 -67 -6 0 -11 36 -29 206 -16 158 -71 251 -175 300 -80 38
-216 29 -230 -15 -3 -10 6 -42 19 -72 21 -45 28 -85 41 -240 42 -504 101 -778
184 -853 29 -26 112 -18 148 15 46 43 56 82 63 254 16 356 147 767 201 628 6
-16 14 -113 19 -218 9 -204 17 -248 55 -293 52 -63 82 -26 95 119 19 214 128
495 230 593 19 19 44 36 55 38 27 4 25 -14 -35 -302 -80 -385 -93 -518 -66
-672 31 -174 112 -278 215 -278 64 0 111 50 176 184 48 100 124 299 140 367
l7 27 43 -43 c121 -121 280 -43 424 209 75 132 189 416 175 438 -16 25 -39 -8
-84 -121 -76 -189 -147 -317 -210 -383 -62 -64 -90 -72 -132 -39 -13 11 -30
37 -36 59 -16 53 -15 220 3 367 21 175 19 242 -8 290 -40 71 -138 107 -186 68z"/>
<path d="M2831 1367 c-13 -6 -34 -25 -45 -40 -20 -28 -21 -39 -20 -300 1 -150
4 -393 9 -540 6 -225 10 -271 24 -288 21 -25 80 -35 105 -17 17 14 18 34 17
391 -1 217 2 377 7 377 20 0 46 -92 117 -419 41 -189 81 -354 89 -366 19 -29
46 -38 78 -26 l26 10 -39 223 c-21 123 -52 287 -69 366 -45 212 -40 256 38
343 42 47 47 58 47 99 0 64 -23 94 -105 135 -111 56 -229 78 -279 52z m231
-98 c62 -33 -58 -229 -140 -229 -6 0 -13 33 -17 74 -7 77 -1 100 38 144 23 24
83 30 119 11z"/>
<path d="M3522 1335 c-35 -29 -39 -47 -78 -345 -45 -342 -103 -723 -119 -774
-24 -77 -6 -86 62 -30 24 20 50 46 58 58 8 13 31 91 50 174 37 165 45 186 76
203 40 21 54 -11 98 -225 23 -110 43 -202 45 -204 9 -8 88 20 107 39 10 10 19
31 19 47 0 15 -25 120 -55 232 -105 388 -147 564 -165 693 -25 165 -38 183
-98 132z m64 -530 c14 -39 15 -49 4 -70 -22 -41 -30 -29 -30 45 0 39 2 70 4
70 2 0 12 -20 22 -45z"/>
<path d="M2335 1308 c-26 -15 -33 -25 -44 -68 -16 -57 -59 -370 -81 -584 -22
-215 -46 -354 -79 -461 -31 -101 -15 -111 66 -39 60 52 76 93 114 297 19 104
25 120 46 130 16 7 30 7 46 0 21 -10 28 -31 65 -219 23 -114 44 -209 47 -212
9 -10 86 19 107 40 27 27 22 64 -37 283 -100 373 -146 565 -161 680 -22 163
-34 184 -89 153z m55 -545 c9 -55 9 -69 -3 -80 -12 -12 -16 -12 -26 1 -14 17
-6 160 9 151 4 -3 13 -35 20 -72z"/>
<path d="M1649 1299 c-14 -5 -31 -21 -38 -36 -8 -18 -14 -173 -18 -527 l-6
-501 32 -30 33 -30 23 27 c22 26 23 33 29 305 4 153 9 315 12 360 l6 82 82 0
c94 -1 172 24 239 75 80 61 85 105 20 177 -50 55 -78 67 -191 83 -155 22 -195
25 -223 15z m283 -79 c41 -12 58 -34 58 -74 0 -21 -12 -34 -55 -62 -64 -41
-139 -74 -165 -74 -31 0 -39 29 -30 114 6 59 12 83 26 93 21 16 114 17 166 3z"/>
</g>
</svg>
